<svg aria-hidden="true" style="position: absolute; width: 0; height: 0; overflow: hidden;" version="1.1" xmlns="http://www.w3.org/2000/svg" xmlns:xlink="http://www.w3.org/1999/xlink">
<defs>
<symbol id="icon-burger" viewBox="0 0 23 15">
  <path d="M0 15V12.5H22.5V15H0ZM0 8.75V6.25H22.5V8.75H0ZM0 2.5V0H22.5V2.5H0Z" />
</symbol>
<symbol id="icon-nota" viewBox="0 0 32 32">
<path d="M12.571 30.857c-1.886 0-3.5-0.672-4.843-2.014s-2.014-2.957-2.014-4.843c0-1.886 0.671-3.5 2.014-4.843s2.957-2.014 4.843-2.014c0.657 0 1.264 0.079 1.821 0.236s1.093 0.393 1.607 0.707v-18.086h10.286v6.857h-6.857v17.143c0 1.886-0.671 3.5-2.014 4.843s-2.957 2.014-4.843 2.014z"></path>
</symbol>
<symbol id="icon-piano" viewBox="0 0 32 32">
<path d="M3.429 30.857c-0.943 0-1.75-0.336-2.421-1.007s-1.007-1.479-1.007-2.422v-24c0-0.943 0.336-1.75 1.007-2.421s1.479-1.007 2.421-1.007h24c0.943 0 1.75 0.336 2.422 1.007s1.007 1.479 1.007 2.421v24c0 0.943-0.336 1.75-1.007 2.422s-1.479 1.007-2.422 1.007h-24zM3.429 27.429h5.571v-7.714h-0.429c-0.486 0-0.893-0.164-1.221-0.493s-0.493-0.736-0.493-1.221v-14.571h-3.429v24zM21.857 27.429h5.571v-24h-3.429v14.571c0 0.486-0.164 0.893-0.493 1.221s-0.736 0.493-1.221 0.493h-0.429v7.714zM11.571 27.429h7.714v-7.714h-0.429c-0.486 0-0.893-0.164-1.221-0.493s-0.493-0.736-0.493-1.221v-14.571h-3.429v14.571c0 0.486-0.164 0.893-0.493 1.221s-0.736 0.493-1.221 0.493h-0.429v7.714z"></path>
</symbol>
<symbol id="icon-time" viewBox="0 0 32 32">
<path d="M19.22 20.585l1.366-1.366-3.61-3.61v-4.488h-1.951v5.268l4.195 4.195zM16 25.756c-1.35 0-2.618-0.256-3.805-0.768s-2.22-1.207-3.098-2.085-1.573-1.911-2.085-3.098c-0.512-1.187-0.768-2.455-0.768-3.805s0.256-2.618 0.768-3.805c0.512-1.187 1.207-2.22 2.085-3.098s1.911-1.573 3.098-2.085c1.187-0.512 2.455-0.768 3.805-0.768s2.618 0.256 3.805 0.768c1.187 0.512 2.22 1.207 3.098 2.085s1.573 1.911 2.085 3.098c0.512 1.187 0.768 2.455 0.768 3.805s-0.256 2.618-0.768 3.805c-0.512 1.187-1.207 2.22-2.085 3.098s-1.911 1.573-3.098 2.085c-1.187 0.512-2.455 0.768-3.805 0.768zM16 23.805c2.163 0 4.004-0.76 5.524-2.28s2.28-3.362 2.28-5.524-0.76-4.004-2.28-5.524c-1.52-1.52-3.362-2.28-5.524-2.28s-4.004 0.76-5.524 2.28c-1.52 1.52-2.28 3.362-2.28 5.524s0.76 4.004 2.28 5.524c1.52 1.52 3.362 2.28 5.524 2.28z"></path>
</symbol>
<symbol id="icon-plane" viewBox="0 0 32 32">
<path d="M0 29.474v-26.947l32 13.474-32 13.474zM3.368 24.421l19.958-8.421-19.958-8.421v5.895l10.105 2.526-10.105 2.526v5.895zM3.368 24.421v0z"></path>
</symbol>
<symbol id="icon-geo" viewBox="0 0 32 32">
<path d="M16 16c0.88 0 1.633-0.313 2.26-0.94s0.94-1.38 0.94-2.26c0-0.88-0.313-1.633-0.94-2.26s-1.38-0.94-2.26-0.94c-0.88 0-1.633 0.313-2.26 0.94s-0.94 1.38-0.94 2.26c0 0.88 0.313 1.633 0.94 2.26s1.38 0.94 2.26 0.94zM16 27.76c3.253-2.987 5.667-5.7 7.24-8.14s2.36-4.607 2.36-6.5c0-2.907-0.927-5.287-2.78-7.14s-4.127-2.78-6.82-2.78c-2.693 0-4.967 0.927-6.82 2.78s-2.78 4.233-2.78 7.14c0 1.893 0.787 4.060 2.36 6.5s3.987 5.153 7.24 8.14zM16 32c-4.293-3.653-7.5-7.047-9.62-10.18s-3.18-6.033-3.18-8.7c0-4 1.287-7.187 3.86-9.56s5.553-3.56 8.94-3.56c3.387 0 6.367 1.187 8.94 3.56s3.86 5.56 3.86 9.56c0 2.667-1.060 5.567-3.18 8.7s-5.327 6.527-9.62 10.18z"></path>
</symbol>
<symbol id="icon-person" viewBox="0 0 32 32">
<path d="M31.5 14.537c-1.8 0-3.525-0.344-5.175-1.031s-3.113-1.669-4.387-2.944c-1.275-1.275-2.256-2.737-2.944-4.388s-1.031-3.375-1.031-5.175h3c0 1.425 0.262 2.775 0.788 4.050s1.288 2.413 2.288 3.413c1 1 2.137 1.769 3.413 2.306s2.625 0.806 4.050 0.806v2.963zM31.5 8.575c-1.025 0-1.994-0.188-2.906-0.563s-1.731-0.925-2.456-1.65-1.275-1.544-1.65-2.456c-0.375-0.913-0.563-1.881-0.563-2.906h2.962c0 0.625 0.119 1.219 0.356 1.781s0.569 1.056 0.994 1.481 0.919 0.75 1.481 0.975c0.562 0.225 1.156 0.338 1.781 0.338v3zM12 19c-1.65 0-3.063-0.587-4.237-1.762s-1.763-2.588-1.763-4.238c0-1.65 0.588-3.063 1.763-4.238s2.587-1.763 4.237-1.763c1.65 0 3.063 0.588 4.238 1.763s1.762 2.588 1.762 4.238c0 1.65-0.587 3.063-1.762 4.238s-2.588 1.762-4.238 1.762zM0 31v-4.2c0-0.825 0.212-1.6 0.637-2.325s1.012-1.275 1.762-1.65c1.275-0.65 2.712-1.2 4.313-1.65s3.362-0.675 5.287-0.675c1.925 0 3.688 0.225 5.288 0.675s3.038 1 4.313 1.65c0.75 0.375 1.337 0.925 1.762 1.65s0.637 1.5 0.637 2.325v4.2h-24z"></path>
</symbol>
<symbol id="icon-photo" viewBox="0 0 32 32">
<path d="M16 23.2c2 0 3.7-0.7 5.1-2.1s2.1-3.1 2.1-5.1c0-2-0.7-3.7-2.1-5.1s-3.1-2.1-5.1-2.1c-2 0-3.7 0.7-5.1 2.1s-2.1 3.1-2.1 5.1c0 2 0.7 3.7 2.1 5.1s3.1 2.1 5.1 2.1zM16 20c-1.12 0-2.067-0.387-2.84-1.16s-1.16-1.72-1.16-2.84c0-1.12 0.387-2.067 1.16-2.84s1.72-1.16 2.84-1.16c1.12 0 2.067 0.387 2.84 1.16s1.16 1.72 1.16 2.84c0 1.12-0.387 2.067-1.16 2.84s-1.72 1.16-2.84 1.16zM3.2 28.8c-0.88 0-1.633-0.313-2.26-0.94s-0.94-1.38-0.94-2.26v-19.2c0-0.88 0.313-1.633 0.94-2.26s1.38-0.94 2.26-0.94h5.040l2.96-3.2h9.6l2.96 3.2h5.040c0.88 0 1.633 0.313 2.26 0.94s0.94 1.38 0.94 2.26v19.2c0 0.88-0.313 1.633-0.94 2.26s-1.38 0.94-2.26 0.94h-25.6zM3.2 25.6h25.6v-19.2h-6.48l-2.92-3.2h-6.8l-2.92 3.2h-6.48v19.2z"></path>
</symbol>
</defs>
</svg>
